<svg viewBox="0 0 900 520" xmlns="http://www.w3.org/2000/svg" font-family="Segoe UI, system-ui, sans-serif">
  <defs>
    <linearGradient id="bgGrad" x1="0%" y1="0%" x2="100%" y2="100%">
      <stop offset="0%" style="stop-color:#0a0e1a"/>
      <stop offset="100%" style="stop-color:#0f1628"/>
    </linearGradient>
    <linearGradient id="azureGrad" x1="0%" y1="0%" x2="0%" y2="100%">
      <stop offset="0%" style="stop-color:#1e3a5f"/>
      <stop offset="100%" style="stop-color:#0f2440"/>
    </linearGradient>
    <linearGradient id="cardGrad" x1="0%" y1="0%" x2="0%" y2="100%">
      <stop offset="0%" style="stop-color:#1a2340"/>
      <stop offset="100%" style="stop-color:#141c35"/>
    </linearGradient>
    <linearGradient id="buyGrad" x1="0%" y1="0%" x2="100%" y2="0%">
      <stop offset="0%" style="stop-color:#00d4aa"/>
      <stop offset="100%" style="stop-color:#00a882"/>
    </linearGradient>
    <filter id="glow">
      <feGaussianBlur stdDeviation="3" result="coloredBlur"/>
      <feMerge><feMergeNode in="coloredBlur"/><feMergeNode in="SourceGraphic"/></feMerge>
    </filter>
    <filter id="shadow">
      <feDropShadow dx="0" dy="4" stdDeviation="6" flood-color="#000" flood-opacity="0.4"/>
    </filter>
    <marker id="arrowBlue" markerWidth="10" markerHeight="7" refX="10" refY="3.5" orient="auto">
      <polygon points="0 0, 10 3.5, 0 7" fill="#4e7fff"/>
    </marker>
    <marker id="arrowGreen" markerWidth="10" markerHeight="7" refX="10" refY="3.5" orient="auto">
      <polygon points="0 0, 10 3.5, 0 7" fill="#00d4aa"/>
    </marker>
    <marker id="arrowOrange" markerWidth="10" markerHeight="7" refX="10" refY="3.5" orient="auto">
      <polygon points="0 0, 10 3.5, 0 7" fill="#f0a500"/>
    </marker>
  </defs>

  <!-- Background -->
  <rect width="900" height="520" fill="url(#bgGrad)" rx="12"/>

  <!-- Title -->
  <text x="450" y="38" text-anchor="middle" fill="#e8edf8" font-size="20" font-weight="700" letter-spacing="-0.5">🛰️ CryptoSentinel — Azure AI Pipeline Architecture</text>
  <line x1="100" y1="50" x2="800" y2="50" stroke="#2a3660" stroke-width="1"/>

  <!-- ═══ DATA SOURCES (left) ═══ -->
  <text x="90" y="88" fill="#8b9cc8" font-size="11" font-weight="600" text-transform="uppercase" letter-spacing="1">DATA SOURCES</text>

  <!-- CoinGecko box -->
  <rect x="30" y="100" width="160" height="80" rx="10" fill="url(#cardGrad)" stroke="#2a3660" stroke-width="1.5" filter="url(#shadow)"/>
  <text x="60" y="122" fill="#f0a500" font-size="18">📊</text>
  <text x="88" y="125" fill="#e8edf8" font-size="13" font-weight="700">CoinGecko</text>
  <text x="40" y="143" fill="#8b9cc8" font-size="10">Prices · Market Cap</text>
  <text x="40" y="158" fill="#8b9cc8" font-size="10">Volume · Sparklines</text>
  <text x="40" y="173" fill="#00d4aa" font-size="9">Free API Key ✓</text>

  <!-- CryptoPanic box -->
  <rect x="30" y="200" width="160" height="80" rx="10" fill="url(#cardGrad)" stroke="#2a3660" stroke-width="1.5" filter="url(#shadow)"/>
  <text x="60" y="222" fill="#e63946" font-size="18">📰</text>
  <text x="88" y="225" fill="#e8edf8" font-size="13" font-weight="700">CryptoPanic</text>
  <text x="40" y="243" fill="#8b9cc8" font-size="10">News Headlines</text>
  <text x="40" y="258" fill="#8b9cc8" font-size="10">Sentiment Votes</text>
  <text x="40" y="273" fill="#00d4aa" font-size="9">Public Feed ✓</text>

  <!-- CoinGecko Trending -->
  <rect x="30" y="300" width="160" height="70" rx="10" fill="url(#cardGrad)" stroke="#2a3660" stroke-width="1.5" filter="url(#shadow)"/>
  <text x="55" y="320" fill="#ff6b35" font-size="16">🔥</text>
  <text x="80" y="323" fill="#e8edf8" font-size="13" font-weight="700">Trending</text>
  <text x="40" y="343" fill="#8b9cc8" font-size="10">Top 7 Trending Coins</text>
  <text x="40" y="358" fill="#00d4aa" font-size="9">Real-time ✓</text>

  <!-- Arrows from sources to ingestion -->
  <line x1="192" y1="140" x2="270" y2="185" stroke="#4e7fff" stroke-width="1.5" stroke-dasharray="5,3" marker-end="url(#arrowBlue)"/>
  <line x1="192" y1="240" x2="270" y2="220" stroke="#4e7fff" stroke-width="1.5" stroke-dasharray="5,3" marker-end="url(#arrowBlue)"/>
  <line x1="192" y1="330" x2="270" y2="255" stroke="#4e7fff" stroke-width="1.5" stroke-dasharray="5,3" marker-end="url(#arrowBlue)"/>

  <!-- ═══ AZURE FUNCTION APP (center) ═══ -->
  <rect x="255" y="70" width="390" height="380" rx="14" fill="url(#azureGrad)" stroke="#1e5fa8" stroke-width="2" filter="url(#shadow)"/>
  <text x="450" y="95" text-anchor="middle" fill="#5ba3f5" font-size="12" font-weight="700" letter-spacing="0.8">☁️  AZURE FUNCTION APP  (Linux · Python 3.11)</text>
  <line x1="275" y1="103" x2="625" y2="103" stroke="#1e5fa8" stroke-width="1"/>

  <!-- Ingestion Layer -->
  <rect x="275" y="115" width="170" height="120" rx="8" fill="#0f1e3a" stroke="#2a4a7f" stroke-width="1.5"/>
  <text x="360" y="135" text-anchor="middle" fill="#5ba3f5" font-size="11" font-weight="700">INGESTION LAYER</text>
  <rect x="285" y="143" width="150" height="35" rx="6" fill="#1a2d50" stroke="#2a4a7f" stroke-width="1"/>
  <text x="360" y="157" text-anchor="middle" fill="#e8edf8" font-size="10" font-weight="600">coingecko_client.py</text>
  <text x="360" y="170" text-anchor="middle" fill="#8b9cc8" font-size="9">Rate limiting · Retry logic</text>
  <rect x="285" y="185" width="150" height="35" rx="6" fill="#1a2d50" stroke="#2a4a7f" stroke-width="1"/>
  <text x="360" y="199" text-anchor="middle" fill="#e8edf8" font-size="10" font-weight="600">cryptopanic_client.py</text>
  <text x="360" y="212" text-anchor="middle" fill="#8b9cc8" font-size="9">Keyword NLP · Vote analysis</text>
  <text x="360" y="230" text-anchor="middle" fill="#556090" font-size="9">24 coins tracked</text>

  <!-- Scoring Engine -->
  <rect x="455" y="115" width="175" height="120" rx="8" fill="#0f1e3a" stroke="#2a4a7f" stroke-width="1.5"/>
  <text x="542" y="135" text-anchor="middle" fill="#5ba3f5" font-size="11" font-weight="700">SCORING ENGINE</text>
  <rect x="465" y="143" width="155" height="25" rx="5" fill="#1a3520" stroke="#00d4aa" stroke-width="1"/>
  <text x="542" y="159" text-anchor="middle" fill="#00d4aa" font-size="9" font-weight="600">Sentiment 30% · Momentum 7d 25%</text>
  <rect x="465" y="173" width="155" height="25" rx="5" fill="#1a3520" stroke="#00d4aa" stroke-width="1"/>
  <text x="542" y="189" text-anchor="middle" fill="#00d4aa" font-size="9" font-weight="600">Momentum 30d 15% · 24h 15%</text>
  <rect x="465" y="203" width="155" height="25" rx="5" fill="#1a3520" stroke="#00d4aa" stroke-width="1"/>
  <text x="542" y="219" text-anchor="middle" fill="#00d4aa" font-size="9" font-weight="600">Volume 10% · Trending Bonus 5%</text>
  <text x="542" y="230" text-anchor="middle" fill="#556090" font-size="9">Score 0–100 per coin</text>

  <!-- Arrow between ingestion and scoring -->
  <line x1="447" y1="175" x2="453" y2="175" stroke="#4e7fff" stroke-width="2" marker-end="url(#arrowBlue)"/>

  <!-- API Functions -->
  <rect x="275" y="250" width="350" height="55" rx="8" fill="#0f1e3a" stroke="#2a4a7f" stroke-width="1.5"/>
  <text x="450" y="268" text-anchor="middle" fill="#5ba3f5" font-size="11" font-weight="700">HTTP TRIGGER FUNCTIONS</text>
  <rect x="285" y="275" width="100" height="22" rx="5" fill="#1a3520" stroke="#00d4aa" stroke-width="1"/>
  <text x="335" y="289" text-anchor="middle" fill="#00d4aa" font-size="9" font-weight="600">GET /api/picks</text>
  <rect x="393" y="275" width="120" height="22" rx="5" fill="#1a3520" stroke="#00d4aa" stroke-width="1"/>
  <text x="453" y="289" text-anchor="middle" fill="#00d4aa" font-size="9" font-weight="600">GET /api/sentiment/{coin}</text>
  <rect x="521" y="275" width="95" height="22" rx="5" fill="#2a1a00" stroke="#f0a500" stroke-width="1"/>
  <text x="568" y="289" text-anchor="middle" fill="#f0a500" font-size="9" font-weight="600">⏰ Timer 8AM UTC</text>

  <!-- Picks Generator -->
  <rect x="275" y="320" width="350" height="55" rx="8" fill="#0f1e3a" stroke="#2a4a7f" stroke-width="1.5"/>
  <text x="450" y="340" text-anchor="middle" fill="#5ba3f5" font-size="11" font-weight="700">PICKS GENERATOR</text>
  <rect x="285" y="348" width="95" height="20" rx="4" fill="#2a1f00" stroke="#f0a500" stroke-width="1"/>
  <text x="332" y="361" text-anchor="middle" fill="#f0a500" font-size="9">Daily Cadence</text>
  <rect x="388" y="348" width="95" height="20" rx="4" fill="#2a1f00" stroke="#f0a500" stroke-width="1"/>
  <text x="435" y="361" text-anchor="middle" fill="#f0a500" font-size="9">Weekly Cadence</text>
  <rect x="491" y="348" width="95" height="20" rx="4" fill="#2a1f00" stroke="#f0a500" stroke-width="1"/>
  <text x="538" y="361" text-anchor="middle" fill="#f0a500" font-size="9">Monthly Cadence</text>
  <text x="450" y="370" text-anchor="middle" fill="#556090" font-size="9">BUY ≥65 · WATCH 45–64 · AVOID &lt;45</text>

  <!-- Storage -->
  <rect x="275" y="390" width="350" height="45" rx="8" fill="#0f1e3a" stroke="#2a4a7f" stroke-width="1.5"/>
  <text x="310" y="408" fill="#5ba3f5" font-size="10">🗄️</text>
  <text x="330" y="410" fill="#e8edf8" font-size="10" font-weight="600">Azure Blob Storage</text>
  <text x="330" y="425" fill="#8b9cc8" font-size="9">picks/latest.json · picks/YYYY-MM-DD.json</text>
  <text x="560" y="410" fill="#00d4aa" font-size="9">~$0.03/month</text>

  <!-- Internal arrows -->
  <line x1="450" y1="237" x2="450" y2="248" stroke="#4e7fff" stroke-width="1.5" marker-end="url(#arrowBlue)"/>
  <line x1="450" y1="307" x2="450" y2="318" stroke="#4e7fff" stroke-width="1.5" marker-end="url(#arrowBlue)"/>
  <line x1="450" y1="377" x2="450" y2="388" stroke="#4e7fff" stroke-width="1.5" marker-end="url(#arrowBlue)"/>

  <!-- ═══ OUTPUTS (right) ═══ -->
  <text x="700" y="88" fill="#8b9cc8" font-size="11" font-weight="600" letter-spacing="1">OUTPUTS</text>

  <!-- Vercel Dashboard -->
  <rect x="665" y="100" width="205" height="80" rx="10" fill="url(#cardGrad)" stroke="#2a3660" stroke-width="1.5" filter="url(#shadow)"/>
  <text x="695" y="122" fill="#ffffff" font-size="18">▲</text>
  <text x="720" y="125" fill="#e8edf8" font-size="13" font-weight="700">Vercel Dashboard</text>
  <text x="675" y="145" fill="#8b9cc8" font-size="10">Live public URL · Auto refresh</text>
  <text x="675" y="160" fill="#8b9cc8" font-size="10">Charts · BUY/WATCH signals</text>
  <text x="675" y="175" fill="#00d4aa" font-size="9">Free · Always-on ✓</text>

  <!-- REST API -->
  <rect x="665" y="200" width="205" height="80" rx="10" fill="url(#cardGrad)" stroke="#2a3660" stroke-width="1.5" filter="url(#shadow)"/>
  <text x="695" y="222" fill="#4e7fff" font-size="18">⚡</text>
  <text x="720" y="225" fill="#e8edf8" font-size="13" font-weight="700">REST API</text>
  <text x="675" y="245" fill="#8b9cc8" font-size="10">/api/picks · /api/sentiment</text>
  <text x="675" y="260" fill="#8b9cc8" font-size="10">JSON · CORS enabled</text>
  <text x="675" y="275" fill="#00d4aa" font-size="9">144 tests passing ✓</text>

  <!-- Blob Storage output -->
  <rect x="665" y="300" width="205" height="70" rx="10" fill="url(#cardGrad)" stroke="#2a3660" stroke-width="1.5" filter="url(#shadow)"/>
  <text x="695" y="320" fill="#f0a500" font-size="18">📦</text>
  <text x="720" y="323" fill="#e8edf8" font-size="13" font-weight="700">Daily Snapshots</text>
  <text x="675" y="343" fill="#8b9cc8" font-size="10">Saved every 8AM UTC</text>
  <text x="675" y="358" fill="#8b9cc8" font-size="10">Historical picks archive</text>

  <!-- Arrows to outputs -->
  <line x1="647" y1="185" x2="663" y2="155" stroke="#00d4aa" stroke-width="1.5" stroke-dasharray="5,3" marker-end="url(#arrowGreen)"/>
  <line x1="647" y1="275" x2="663" y2="250" stroke="#00d4aa" stroke-width="1.5" stroke-dasharray="5,3" marker-end="url(#arrowGreen)"/>
  <line x1="647" y1="410" x2="663" y2="340" stroke="#f0a500" stroke-width="1.5" stroke-dasharray="5,3" marker-end="url(#arrowOrange)"/>

  <!-- Bottom legend -->
  <line x1="30" y1="470" x2="870" y2="470" stroke="#2a3660" stroke-width="1"/>
  <line x1="50" y1="490" x2="80" y2="490" stroke="#4e7fff" stroke-width="1.5" stroke-dasharray="5,3"/>
  <text x="88" y="494" fill="#8b9cc8" font-size="10">Data Flow</text>
  <rect x="160" y="483" width="12" height="12" rx="3" fill="#1a3520" stroke="#00d4aa" stroke-width="1"/>
  <text x="178" y="494" fill="#8b9cc8" font-size="10">Free Tier Service</text>
  <rect x="290" y="483" width="12" height="12" rx="3" fill="#2a1f00" stroke="#f0a500" stroke-width="1"/>
  <text x="308" y="494" fill="#8b9cc8" font-size="10">Scheduled / Timer</text>
  <text x="700" y="494" fill="#556090" font-size="10">Est. cost: ~$0.03/month</text>
</svg>
